<svg width="111" height="94" viewBox="0 0 111 94" fill="none" xmlns="http://www.w3.org/2000/svg">
<g filter="url(#filter0_d)">
<path d="M27.7007 0V1.58399C25.4336 1.95799 23.7617 2.77748 22.6848 4.04248C21.6079 5.30748 21.0695 6.65496 21.0695 8.08496C21.0695 9.60296 21.3302 11.4839 21.8516 13.7279C22.4184 16.1259 22.7018 18.1389 22.7018 19.7669C22.7018 21.5709 22.1803 23.3089 21.1375 24.9809C20.0946 26.6529 18.859 27.9234 17.4308 28.7924C16.0025 29.6614 14.0641 30.4369 11.6157 31.1189C15.8325 32.3729 18.7457 34.0723 20.3553 36.2173C21.965 38.3623 22.7698 40.4908 22.7698 42.6028C22.7698 43.8788 22.4977 45.6828 21.9536 48.0148C21.3869 50.3468 21.1035 52.3158 21.1035 53.9218C21.1035 57.7498 23.3025 60.0377 27.7007 60.7857V62.3697C25.683 62.3697 24.045 62.2267 22.7868 61.9407C21.5285 61.6547 20.1286 60.9892 18.587 59.9442C17.0454 58.8992 15.8381 57.5957 14.9653 56.0337C14.0925 54.4717 13.656 52.8878 13.656 51.2818C13.656 49.8078 14.0074 47.6738 14.7102 44.8798C15.2317 42.7898 15.4924 40.9858 15.4924 39.4678C15.4924 35.3758 13.2707 32.9559 8.82712 32.2079V30.1289C11.2076 29.7769 12.9136 28.8529 13.9451 27.3569C14.9766 25.8609 15.4924 24.2659 15.4924 22.5719C15.4924 21.0759 15.243 19.3489 14.7443 17.3909C14.0414 14.6189 13.69 12.5509 13.69 11.1869C13.69 8.52495 14.8859 6.01148 17.2777 3.64648C19.6695 1.28148 23.1438 0.066 27.7007 0Z" fill="black"/>
</g>
<path d="M27.7007 0V1.58399C25.4336 1.95799 23.7617 2.77748 22.6848 4.04248C21.6079 5.30748 21.0695 6.65496 21.0695 8.08496C21.0695 9.60296 21.3302 11.4839 21.8516 13.7279C22.4184 16.1259 22.7018 18.1389 22.7018 19.7669C22.7018 21.5709 22.1803 23.3089 21.1375 24.9809C20.0946 26.6529 18.859 27.9234 17.4308 28.7924C16.0025 29.6614 14.0641 30.4369 11.6157 31.1189C15.8325 32.3729 18.7457 34.0723 20.3553 36.2173C21.965 38.3623 22.7698 40.4908 22.7698 42.6028C22.7698 43.8788 22.4977 45.6828 21.9536 48.0148C21.3869 50.3468 21.1035 52.3158 21.1035 53.9218C21.1035 57.7498 23.3025 60.0377 27.7007 60.7857V62.3697C25.683 62.3697 24.045 62.2267 22.7868 61.9407C21.5285 61.6547 20.1286 60.9892 18.587 59.9442C17.0454 58.8992 15.8381 57.5957 14.9653 56.0337C14.0925 54.4717 13.656 52.8878 13.656 51.2818C13.656 49.8078 14.0074 47.6738 14.7102 44.8798C15.2317 42.7898 15.4924 40.9858 15.4924 39.4678C15.4924 35.3758 13.2707 32.9559 8.82712 32.2079V30.1289C11.2076 29.7769 12.9136 28.8529 13.9451 27.3569C14.9766 25.8609 15.4924 24.2659 15.4924 22.5719C15.4924 21.0759 15.243 19.3489 14.7443 17.3909C14.0414 14.6189 13.69 12.5509 13.69 11.1869C13.69 8.52495 14.8859 6.01148 17.2777 3.64648C19.6695 1.28148 23.1438 0.066 27.7007 0Z" fill="#74B3ED"/>
<g filter="url(#filter1_d)">
<path d="M80.7289 0V1.58399C82.9961 1.95799 84.668 2.77748 85.7449 4.04248C86.8218 5.30748 87.3602 6.65496 87.3602 8.08496C87.3602 9.60296 87.0995 11.4839 86.5781 13.7279C86.0113 16.1259 85.7279 18.1389 85.7279 19.7669C85.7279 21.5709 86.2493 23.3089 87.2922 24.9809C88.3351 26.6529 89.5706 27.9234 90.9989 28.7924C92.4272 29.6614 94.3655 30.4369 96.814 31.1189C92.5972 32.3729 89.684 34.0723 88.0744 36.2173C86.4647 38.3623 85.6599 40.4908 85.6599 42.6028C85.6599 43.8788 85.9319 45.6828 86.476 48.0148C87.0428 50.3468 87.3262 52.3158 87.3262 53.9218C87.3262 57.7498 85.1271 60.0377 80.7289 60.7857V62.3697C82.7467 62.3697 84.3846 62.2267 85.6429 61.9407C86.9011 61.6547 88.3011 60.9892 89.8427 59.9442C91.3843 58.8992 92.5915 57.5957 93.4644 56.0337C94.3372 54.4717 94.7736 52.8878 94.7736 51.2818C94.7736 49.8078 94.4222 47.6738 93.7194 44.8798C93.198 42.7898 92.9373 40.9858 92.9373 39.4678C92.9373 35.3758 95.159 32.9559 99.6026 32.2079V30.1289C97.2221 29.7769 95.5161 28.8529 94.4846 27.3569C93.453 25.8609 92.9373 24.2659 92.9373 22.5719C92.9373 21.0759 93.1867 19.3489 93.6854 17.3909C94.3882 14.6189 94.7396 12.5509 94.7396 11.1869C94.7396 8.52495 93.5437 6.01148 91.1519 3.64648C88.7601 1.28148 85.2858 0.066 80.7289 0Z" fill="black"/>
</g>
<path d="M80.7289 0V1.58399C82.9961 1.95799 84.668 2.77748 85.7449 4.04248C86.8218 5.30748 87.3602 6.65496 87.3602 8.08496C87.3602 9.60296 87.0995 11.4839 86.5781 13.7279C86.0113 16.1259 85.7279 18.1389 85.7279 19.7669C85.7279 21.5709 86.2493 23.3089 87.2922 24.9809C88.3351 26.6529 89.5706 27.9234 90.9989 28.7924C92.4272 29.6614 94.3655 30.4369 96.814 31.1189C92.5972 32.3729 89.684 34.0723 88.0744 36.2173C86.4647 38.3623 85.6599 40.4908 85.6599 42.6028C85.6599 43.8788 85.9319 45.6828 86.476 48.0148C87.0428 50.3468 87.3262 52.3158 87.3262 53.9218C87.3262 57.7498 85.1271 60.0377 80.7289 60.7857V62.3697C82.7467 62.3697 84.3846 62.2267 85.6429 61.9407C86.9011 61.6547 88.3011 60.9892 89.8427 59.9442C91.3843 58.8992 92.5915 57.5957 93.4644 56.0337C94.3372 54.4717 94.7736 52.8878 94.7736 51.2818C94.7736 49.8078 94.4222 47.6738 93.7194 44.8798C93.198 42.7898 92.9373 40.9858 92.9373 39.4678C92.9373 35.3758 95.159 32.9559 99.6026 32.2079V30.1289C97.2221 29.7769 95.5161 28.8529 94.4846 27.3569C93.453 25.8609 92.9373 24.2659 92.9373 22.5719C92.9373 21.0759 93.1867 19.3489 93.6854 17.3909C94.3882 14.6189 94.7396 12.5509 94.7396 11.1869C94.7396 8.52495 93.5437 6.01148 91.1519 3.64648C88.7601 1.28148 85.2858 0.066 80.7289 0Z" fill="#74B3ED"/>
<path d="M36.5519 22.3087V40.5361L54.6775 49.6339L72.803 40.5361V22.3087L54.6775 13.2109L36.5519 22.3087Z" fill="#8EC6F4"/>
<path d="M72.8029 40.5361V22.3087L54.6773 13.2109V49.6339L72.8029 40.5361Z" fill="#74B3ED"/>
<path d="M69.7789 20.7872V38.8085L54.6773 46.4006V49.634L72.8029 40.5361V22.3088L69.7789 20.7872Z" fill="#5DF9E6"/>
<path d="M36.5519 22.3087L54.6775 31.4224L72.803 22.3087L54.6775 13.2109L36.5519 22.3087Z" fill="#B8E2FF"/>
<path d="M39.9402 24.0522L58.084 14.9385L72.803 22.3404V22.3087L54.6775 13.2109L36.5519 22.3087V40.5361L39.9402 42.232V24.0522Z" fill="#D9F1FF"/>
<path d="M54.6775 51.219C54.3584 51.2209 54.0443 51.1498 53.7667 51.0129L35.6411 41.8992C35.3658 41.7609 35.1369 41.5623 34.9771 41.3232C34.8173 41.0841 34.7322 40.8127 34.7303 40.5361V22.3088C34.7322 22.0322 34.8173 21.7608 34.9771 21.5217C35.1369 21.2825 35.3658 21.084 35.6411 20.9457L53.8578 11.832C54.1347 11.6929 54.4488 11.6196 54.7686 11.6196C55.0884 11.6196 55.4025 11.6929 55.6794 11.832L73.8961 20.9457C74.1714 21.084 74.4003 21.2825 74.5601 21.5217C74.7199 21.7608 74.805 22.0322 74.8069 22.3088V40.5361C74.805 40.8127 74.7199 41.0841 74.5601 41.3232C74.4003 41.5623 74.1714 41.7609 73.8961 41.8992L55.6794 51.0129C55.3752 51.164 55.0273 51.2355 54.6775 51.219V51.219ZM38.3736 39.6168L54.7686 47.8112L71.1636 39.6168V23.228L54.7686 15.0337L38.4647 23.228L38.3736 39.6168Z" fill="#041256"/>
<path d="M3.78188 71.1643H13.2219C15.5899 71.1643 17.6912 71.6336 19.5259 72.5723C21.3605 73.5109 22.7792 74.8336 23.7819 76.5403C24.8059 78.2256 25.3179 80.1669 25.3179 82.3643C25.3179 84.5616 24.8059 86.5136 23.7819 88.2203C22.7792 89.9056 21.3605 91.2176 19.5259 92.1563C17.6912 93.0949 15.5899 93.5643 13.2219 93.5643H3.78188V71.1643ZM13.0299 90.7803C14.8432 90.7803 16.4325 90.4283 17.7979 89.7243C19.1845 89.0203 20.2512 88.0389 20.9979 86.7803C21.7445 85.5003 22.1179 84.0283 22.1179 82.3643C22.1179 80.7003 21.7445 79.2389 20.9979 77.9803C20.2512 76.7003 19.1845 75.7083 17.7979 75.0043C16.4325 74.3003 14.8432 73.9483 13.0299 73.9483H6.98188V90.7803H13.0299ZM45.0994 85.1803C45.0994 85.4149 45.078 85.7243 45.0354 86.1083H31.2754C31.4674 87.6016 32.118 88.8069 33.2274 89.7243C34.358 90.6203 35.7554 91.0683 37.4194 91.0683C39.446 91.0683 41.078 90.3856 42.3154 89.0203L44.0114 91.0043C43.2434 91.9003 42.2834 92.5829 41.1314 93.0523C40.0007 93.5216 38.7314 93.7563 37.3234 93.7563C35.5314 93.7563 33.942 93.3936 32.5554 92.6683C31.1687 91.9216 30.0914 90.8869 29.3234 89.5643C28.5767 88.2416 28.2034 86.7483 28.2034 85.0843C28.2034 83.4416 28.566 81.9589 29.2914 80.6363C30.038 79.3136 31.0514 78.2896 32.3314 77.5643C33.6327 76.8176 35.094 76.4443 36.7154 76.4443C38.3367 76.4443 39.7767 76.8176 41.0354 77.5643C42.3154 78.2896 43.3074 79.3136 44.0114 80.6363C44.7367 81.9589 45.0994 83.4736 45.0994 85.1803ZM36.7154 79.0363C35.2434 79.0363 34.006 79.4843 33.0034 80.3803C32.022 81.2763 31.446 82.4496 31.2754 83.9003H42.1554C41.9847 82.4709 41.398 81.3083 40.3954 80.4123C39.414 79.4949 38.1874 79.0363 36.7154 79.0363ZM64.0606 76.6043L56.6366 93.5643H53.5006L46.0766 76.6043H49.2766L55.1006 90.2043L61.0526 76.6043H64.0606Z" fill="#041256"/>
<path d="M66.9276 76.6043H69.9996V93.5643H66.9276V76.6043ZM68.4636 73.3403C67.8663 73.3403 67.365 73.1483 66.9596 72.7643C66.5756 72.3803 66.3836 71.9109 66.3836 71.3563C66.3836 70.8016 66.5756 70.3323 66.9596 69.9483C67.365 69.5429 67.8663 69.3403 68.4636 69.3403C69.061 69.3403 69.5516 69.5323 69.9356 69.9163C70.341 70.2789 70.5436 70.7376 70.5436 71.2923C70.5436 71.8683 70.341 72.3589 69.9356 72.7643C69.5516 73.1483 69.061 73.3403 68.4636 73.3403ZM83.2571 93.7563C81.5291 93.7563 79.9825 93.3829 78.6171 92.6363C77.2731 91.8896 76.2171 90.8656 75.4491 89.5643C74.6811 88.2416 74.2971 86.7483 74.2971 85.0843C74.2971 83.4203 74.6811 81.9376 75.4491 80.6363C76.2171 79.3136 77.2731 78.2896 78.6171 77.5643C79.9825 76.8176 81.5291 76.4443 83.2571 76.4443C84.7931 76.4443 86.1585 76.7536 87.3531 77.3723C88.5691 77.9909 89.5078 78.8869 90.1691 80.0603L87.8331 81.5643C87.2998 80.7536 86.6385 80.1456 85.8491 79.7403C85.0598 79.3349 84.1851 79.1323 83.2251 79.1323C82.1158 79.1323 81.1131 79.3776 80.2171 79.8683C79.3425 80.3589 78.6491 81.0629 78.1371 81.9803C77.6465 82.8763 77.4011 83.9109 77.4011 85.0843C77.4011 86.2789 77.6465 87.3349 78.1371 88.2523C78.6491 89.1483 79.3425 89.8416 80.2171 90.3323C81.1131 90.8229 82.1158 91.0683 83.2251 91.0683C84.1851 91.0683 85.0598 90.8656 85.8491 90.4603C86.6385 90.0549 87.2998 89.4469 87.8331 88.6363L90.1691 90.1083C89.5078 91.2816 88.5691 92.1883 87.3531 92.8283C86.1585 93.4469 84.7931 93.7563 83.2571 93.7563ZM109.224 85.1803C109.224 85.4149 109.203 85.7243 109.16 86.1083H95.4004C95.5924 87.6016 96.243 88.8069 97.3524 89.7243C98.483 90.6203 99.8804 91.0683 101.544 91.0683C103.571 91.0683 105.203 90.3856 106.44 89.0203L108.136 91.0043C107.368 91.9003 106.408 92.5829 105.256 93.0523C104.126 93.5216 102.856 93.7563 101.448 93.7563C99.6564 93.7563 98.067 93.3936 96.6804 92.6683C95.2937 91.9216 94.2164 90.8869 93.4484 89.5643C92.7017 88.2416 92.3284 86.7483 92.3284 85.0843C92.3284 83.4416 92.691 81.9589 93.4164 80.6363C94.163 79.3136 95.1764 78.2896 96.4564 77.5643C97.7577 76.8176 99.219 76.4443 100.84 76.4443C102.462 76.4443 103.902 76.8176 105.16 77.5643C106.44 78.2896 107.432 79.3136 108.136 80.6363C108.862 81.9589 109.224 83.4736 109.224 85.1803ZM100.84 79.0363C99.3684 79.0363 98.131 79.4843 97.1284 80.3803C96.147 81.2763 95.571 82.4496 95.4004 83.9003H106.28C106.11 82.4709 105.523 81.3083 104.52 80.4123C103.539 79.4949 102.312 79.0363 100.84 79.0363Z" fill="#041256"/>
<path d="M66.9276 76.6043H69.9996V93.5643H66.9276V76.6043ZM68.4636 73.3403C67.8663 73.3403 67.365 73.1483 66.9596 72.7643C66.5756 72.3803 66.3836 71.9109 66.3836 71.3563C66.3836 70.8016 66.5756 70.3323 66.9596 69.9483C67.365 69.5429 67.8663 69.3403 68.4636 69.3403C69.061 69.3403 69.5516 69.5323 69.9356 69.9163C70.341 70.2789 70.5436 70.7376 70.5436 71.2923C70.5436 71.8683 70.341 72.3589 69.9356 72.7643C69.5516 73.1483 69.061 73.3403 68.4636 73.3403ZM83.2571 93.7563C81.5291 93.7563 79.9825 93.3829 78.6171 92.6363C77.2731 91.8896 76.2171 90.8656 75.4491 89.5643C74.6811 88.2416 74.2971 86.7483 74.2971 85.0843C74.2971 83.4203 74.6811 81.9376 75.4491 80.6363C76.2171 79.3136 77.2731 78.2896 78.6171 77.5643C79.9825 76.8176 81.5291 76.4443 83.2571 76.4443C84.7931 76.4443 86.1585 76.7536 87.3531 77.3723C88.5691 77.9909 89.5078 78.8869 90.1691 80.0603L87.8331 81.5643C87.2998 80.7536 86.6385 80.1456 85.8491 79.7403C85.0598 79.3349 84.1851 79.1323 83.2251 79.1323C82.1158 79.1323 81.1131 79.3776 80.2171 79.8683C79.3425 80.3589 78.6491 81.0629 78.1371 81.9803C77.6465 82.8763 77.4011 83.9109 77.4011 85.0843C77.4011 86.2789 77.6465 87.3349 78.1371 88.2523C78.6491 89.1483 79.3425 89.8416 80.2171 90.3323C81.1131 90.8229 82.1158 91.0683 83.2251 91.0683C84.1851 91.0683 85.0598 90.8656 85.8491 90.4603C86.6385 90.0549 87.2998 89.4469 87.8331 88.6363L90.1691 90.1083C89.5078 91.2816 88.5691 92.1883 87.3531 92.8283C86.1585 93.4469 84.7931 93.7563 83.2571 93.7563ZM109.224 85.1803C109.224 85.4149 109.203 85.7243 109.16 86.1083H95.4004C95.5924 87.6016 96.243 88.8069 97.3524 89.7243C98.483 90.6203 99.8804 91.0683 101.544 91.0683C103.571 91.0683 105.203 90.3856 106.44 89.0203L108.136 91.0043C107.368 91.9003 106.408 92.5829 105.256 93.0523C104.126 93.5216 102.856 93.7563 101.448 93.7563C99.6564 93.7563 98.067 93.3936 96.6804 92.6683C95.2937 91.9216 94.2164 90.8869 93.4484 89.5643C92.7017 88.2416 92.3284 86.7483 92.3284 85.0843C92.3284 83.4416 92.691 81.9589 93.4164 80.6363C94.163 79.3136 95.1764 78.2896 96.4564 77.5643C97.7577 76.8176 99.219 76.4443 100.84 76.4443C102.462 76.4443 103.902 76.8176 105.16 77.5643C106.44 78.2896 107.432 79.3136 108.136 80.6363C108.862 81.9589 109.224 83.4736 109.224 85.1803ZM100.84 79.0363C99.3684 79.0363 98.131 79.4843 97.1284 80.3803C96.147 81.2763 95.571 82.4496 95.4004 83.9003H106.28C106.11 82.4709 105.523 81.3083 104.52 80.4123C103.539 79.4949 102.312 79.0363 100.84 79.0363Z" fill="#74B3ED"/>
<defs>
<filter id="filter0_d" x="4.82712" y="0" width="26.8736" height="70.3697" filterUnits="userSpaceOnUse" color-interpolation-filters="sRGB">
<feFlood flood-opacity="0" result="BackgroundImageFix"/>
<feColorMatrix in="SourceAlpha" type="matrix" values="0 0 0 0 0 0 0 0 0 0 0 0 0 0 0 0 0 0 127 0" result="hardAlpha"/>
<feOffset dy="4"/>
<feGaussianBlur stdDeviation="2"/>
<feColorMatrix type="matrix" values="0 0 0 0 0 0 0 0 0 0 0 0 0 0 0 0 0 0 0.5 0"/>
<feBlend mode="normal" in2="BackgroundImageFix" result="effect1_dropShadow"/>
<feBlend mode="normal" in="SourceGraphic" in2="effect1_dropShadow" result="shape"/>
</filter>
<filter id="filter1_d" x="76.7289" y="0" width="26.8736" height="70.3697" filterUnits="userSpaceOnUse" color-interpolation-filters="sRGB">
<feFlood flood-opacity="0" result="BackgroundImageFix"/>
<feColorMatrix in="SourceAlpha" type="matrix" values="0 0 0 0 0 0 0 0 0 0 0 0 0 0 0 0 0 0 127 0" result="hardAlpha"/>
<feOffset dy="4"/>
<feGaussianBlur stdDeviation="2"/>
<feColorMatrix type="matrix" values="0 0 0 0 0 0 0 0 0 0 0 0 0 0 0 0 0 0 0.5 0"/>
<feBlend mode="normal" in2="BackgroundImageFix" result="effect1_dropShadow"/>
<feBlend mode="normal" in="SourceGraphic" in2="effect1_dropShadow" result="shape"/>
</filter>
</defs>
</svg>
